<?xml version="1.0" standalone="no"?>
<!DOCTYPE svg PUBLIC "-//W3C//DTD SVG 20010904//EN"
 "http://www.w3.org/TR/2001/REC-SVG-20010904/DTD/svg10.dtd">
<svg version="1.0" xmlns="http://www.w3.org/2000/svg"
 width="16.000000pt" height="16.000000pt" viewBox="0 0 16.000000 16.000000"
 preserveAspectRatio="xMidYMid meet">
<metadata>
Created by potrace 1.11, written by Peter Selinger 2001-2013
</metadata>
<g transform="translate(0.000000,16.000000) scale(0.011429,-0.011429)"
fill="#000000" stroke="none">
<path d="M984 1146 c-6 -6 -73 -69 -150 -141 -250 -235 -295 -278 -292 -286 3
-6 98 -113 210 -234 25 -27 60 -65 77 -83 16 -18 61 -67 98 -108 37 -41 70
-74 73 -74 3 0 5 47 5 105 -1 58 2 105 7 105 5 0 44 -22 88 -50 44 -27 81 -50
83 -50 1 0 3 162 3 360 0 198 -1 360 -3 360 -2 0 -43 -20 -92 -44 l-88 -45 1
95 c1 53 -1 97 -4 99 -3 1 -10 -2 -16 -9z"/>
<path d="M280 1072 c-7 -3 -10 -127 -10 -376 l0 -373 54 -1 c34 0 56 4 58 11
2 7 4 85 3 175 l-1 163 26 -28 c14 -16 68 -75 120 -133 186 -205 160 -185 240
-186 39 -1 70 2 68 7 -3 6 -171 193 -305 338 -23 25 -43 49 -43 52 0 6 113
119 270 269 62 59 79 80 64 81 -134 7 -135 7 -223 -79 -165 -160 -209 -202
-213 -202 -2 0 -3 57 -3 128 1 70 -1 134 -4 142 -6 14 -71 22 -101 12z"/>
</g>
</svg>
